<svg height="500" viewBox="0 0 500 500" width="500" xmlns="http://www.w3.org/2000/svg"><g fill="none" fill-rule="evenodd"><path d="m0 0h500v500h-500z" fill="#fff" opacity="0"/><g fill-rule="nonzero"><path d="m499.972195 250.120877c1.549926 98.321426-61.84705 193.142089-152.692716 230.350197-89.245742 38.658424-200.090454 18.754086-269.7371311-49.360757-70.54163467-65.564287-96.2904063-173.587827-63.3569774-264.057541 31.8434808-93.7704338 123.9040885-162.86649071 222.9493635-166.58080011 96.295406-6.22185582 192.490817 49.60530961 235.488766 135.87410911 17.999141 35.007628 27.398692 74.366205 27.348695 113.774792z" fill="#0079c1"/><g fill="#fff"><path d="m168.289469 339.765526c2.792821-61.443515 5.635514-122.837036 8.478208-184.280551-18.801673-17.14819-37.603346-34.296381-56.355148-51.444571-8.877182.899905-13.964107 12.148718-21.1955199 17.448159-8.1789772 5.649403-13.0165429 13.798543-4.4385913 21.69771 8.4283362 13.948528 16.9065442 27.897056 25.3348802 41.845583-9.076669 12.848645-8.178977 34.046407-28.027958 32.446576-14.1137228 3.449636-28.9755228 5.049467-42.6653352 9.698977-1.2268466 13.398586-1.266744 27.697077 0 41.095663 18.1782755 6.149351 37.5285385 9.449002 56.1805962 14.498469 1.546026 17.048201 21.19552 32.69655 4.787694 46.845057-7.580515 12.49868-17.0561597 24.197446-23.4397517 37.246069 8.5779517 10.348908 18.6021857 20.447842 28.9755227 29.096929 10.522952-7.29923 18.253083-19.547937 27.678856-28.796961 8.228849-9.149034 16.457698-18.248074 24.736419-27.397109z"/><path d="m211.026264 135.326815c52.708309 32.315438 105.366562 64.680979 158.074871 96.996417 24.727355-5.410957 49.45471-10.872016 74.182065-16.282973 3.854264-8.066334-3.053378-18.287031-3.854264-27.255191-.550609-9.920089-5.005537-18.337133-16.217941-15.080539-16.368107 0-32.686159 0-49.054267 0-6.256921-14.529422-24.827465-24.80022-13.164563-40.932889 4.404873-13.978306 10.862016-27.5558 14.015505-41.6844106-10.862017-8.0663343-23.025472-15.5314512-35.188928-21.4434229-14.71628 12.3750595-27.630567 27.2551917-41.646072 40.6322805-15.417055-7.515218-39.043192 1.202435-42.597123-20.2409881-6.757476-13.0263785-11.813069-27.2551918-19.621707-39.5300484-13.31473 1.9539568-27.230124 5.3107543-39.994244 9.7196824.600664 15.3310453 6.256922 30.9626994 8.859801 46.3939481 2.052271 9.569378 4.154596 19.188857 6.206867 28.758235z"/><path d="m365.682486 275.757576c-53.163565 29.161281-106.32713 58.272544-159.490695 87.383806-6.457722 24.309404-12.865383 48.618809-19.323104 72.978233 5.206225 7.252806 17.520949 6.052341 25.730765 9.703754 9.010774 4.251645 18.522146 4.401703 21.075199-7.002709 7.859397-14.305535 15.718794-28.611069 23.578191-42.916603 15.718794 1.450561 33.690282-9.903832 42.250517 8.153154 10.06203 10.504064 18.872565 22.708785 29.785613 32.212462 12.214604-5.602167 24.629448-12.704915 35.642616-20.457915-3.754489-18.857295-10.562629-37.364455-15.518555-56.071692 13.9667-9.853812 17.721189-34.71343 38.195669-27.560662 14.667537.500193 29.585374 2.701045 44.102732 1.800696 4.655566-12.654896 8.410055-26.410217 10.712808-39.715364-11.613886-5.602168-26.081184-6.302439-38.796387-10.003871-12.665143-2.801083-25.330286-5.652186-37.945369-8.503289z"/></g><path d="m370.677399 250.021166c1.448764 61.023535-50.357029 116.903515-111.305022 120.149447-60.798119 6.142304-120.497177-41.248314-128.440399-101.772474-10.491048-59.17585 30.573911-121.298008 89.024034-135.080738 57.95055-16.279601 123.894279 18.42691 143.377654 75.305639 4.845865 13.233418 7.343733 27.315772 7.343733 41.398126z" fill="#0079c1"/></g></g></svg>