<svg height="500" viewBox="0 0 500 500" width="500" xmlns="http://www.w3.org/2000/svg"><g fill="none" fill-rule="evenodd"><path d="m0 0h500v500h-500z" fill="#fff" opacity="0"/><g fill-rule="nonzero" transform="translate(2 2)"><path d="m497 248.493863c0 137.247765-111.24746 248.506137-248.49474 248.506137s-248.50526-111.258372-248.50526-248.506137c0-137.238997 111.259733-248.493863 248.50526-248.493863 137.24728 0 248.49474 111.253112 248.49474 248.493863z" fill="#e95420"/><path d="m118.930265 248.492365c0 17.66393-14.310992 31.98779-31.9756567 31.98779-17.6436165 0-31.9546083-14.322105-31.9546083-31.98779 0-17.656909 14.3109918-31.977259 31.9546083-31.977259 17.6646647 0 31.9756567 14.32035 31.9756567 31.977259zm181.84554 155.517703c8.827948 15.285688 28.367652 20.52835 43.655629 11.706916 15.286223-8.83372 20.523706-28.396732 11.697513-43.694706-8.826194-15.296219-28.367652-20.526596-43.653875-11.694631-15.287977 8.83372-20.52546 28.386202-11.699267 43.682421zm55.351388-279.03884c8.826193-15.299729 3.599234-34.8574763-11.697513-43.6806654-15.277453-8.8319649-34.825927-3.5910573-43.655629 11.7016514-8.826193 15.296219-3.58871 34.852211 11.699267 43.684176s34.838205 3.591057 43.653875-11.705162zm-108.173488 32.31776c47.626714 0 86.707877 36.5319 90.789465 83.131396l46.25683-.730146c-2.196024-34.624041-17.205113-65.764088-40.333528-88.725091-12.243011 4.726646-26.448762 4.084257-38.70405-3.001323-12.264059-7.085581-19.923834-19.080344-21.949719-32.075548-11.495801-3.124185-23.587966-4.796853-36.058998-4.796853-21.874296 0-42.550601 5.118047-60.911609 14.222061l22.507495 40.444151c11.664186-5.423444 24.69124-8.468647 38.404114-8.468647zm-91.1543 91.203377c0-30.850446 15.319549-58.132653 38.758424-74.629401l-23.749335-39.72629c-27.50994 18.383545-48.002073 46.425735-56.647603 79.303392 10.231157 8.243986 16.785904 20.881138 16.785904 35.054054 0 14.181693-6.556501 26.818844-16.785904 35.064586 8.64553 32.875901 29.137663 60.918091 56.647603 79.312168l23.749335-39.726291c-23.438875-16.509034-38.758424-43.78071-38.758424-74.652218zm91.1543 91.220928c-13.71112 0-26.738174-3.043447-38.404114-8.477422l-22.507495 40.44415c18.361008 9.111036 39.035559 14.223817 60.911609 14.223817 12.469278 0 24.563197-1.660382 36.058998-4.789832 2.024131-13.00398 9.683906-24.998743 21.949719-32.072038 12.255288-7.08558 26.461039-7.729724 38.70405-3.003078 23.130169-22.971534 38.137504-54.111582 40.333528-88.735622l-46.25683-.71786c-4.083342 46.58721-43.162751 83.127885-90.789465 83.127885z" fill="#fff"/></g></g></svg>