<svg height="500" viewBox="0 0 500 500" width="500" xmlns="http://www.w3.org/2000/svg"><g fill="none" fill-rule="evenodd"><path d="m0 0h500v500h-500z" fill="#fff" opacity="0"/><g fill="#a80030" fill-rule="nonzero" transform="translate(48)"><path d="m240.845455 264.986364c-8.168182.113636 1.545454 4.209091 12.20909 5.85 2.945455-2.3 5.618182-4.627273 8-6.890909-6.640909 1.627272-13.4 1.663636-20.20909 1.040909"/><path d="m284.686364 254.059091c4.863636-6.713636 8.409091-14.063636 9.659091-21.663636-1.09091 5.418181-4.031819 10.095454-6.8 15.031818-15.268182 9.613636-1.436364-5.709091-.009091-11.531818-16.418182 20.663636-2.254546 12.390909-2.85 18.163636"/><path d="m300.868182 211.95c.986363-14.709091-2.895455-10.059091-4.2-4.445455 1.522727.79091 2.727273 10.368182 4.2 4.445455"/><path d="m209.872727 10.9045455c4.359091.7818181 9.418182 1.3818181 8.709091 2.4227272 4.768182-1.0454545 5.85-2.0090909-8.709091-2.4227272"/><path d="m218.581818 13.3272727-3.081818.6363637 2.868182-.2545455z"/><path d="m354.509091 217.527273c.486364 13.209091-3.863636 19.618182-7.786364 30.963636l-7.059091 3.527273c-5.777272 11.218182.559091 7.122727-3.577272 16.045454-9.018182 8.018182-27.368182 25.090909-33.240909 26.65-4.286364-.095454 2.904545-5.059091 3.845454-7.004545-12.072727 8.290909-9.686364 12.445454-28.15 17.481818l-.540909-1.2c-45.536364 21.422727-108.790909-21.031818-107.959091-78.959091-.486364 3.677273-1.381818 2.759091-2.390909 4.245455-2.35-29.804546 13.763636-59.740909 40.940909-71.963637 26.581818-13.159091 57.745455-7.759091 76.786364 9.986364-10.459091-13.7-31.277273-28.222727-55.95-26.863636-24.168182.381818-46.777273 15.740909-54.322728 32.413636-12.381818 7.795455-13.818181 30.05-19.213636 34.122727-7.259091 53.35 13.654546 76.4 49.031818 103.513637 5.568182 3.754545 1.568182 4.322727 2.322728 7.181818-11.754546-5.504546-22.518182-13.813637-31.368182-23.986364 4.695454 6.872727 9.763636 13.554546 16.313636 18.804546-11.081818-3.754546-25.886364-26.854546-30.209091-27.795455 19.104546 34.204546 77.509091 59.986364 108.090909 47.195455-14.15.522727-32.127272.290909-48.027272-5.586364-6.677273-3.436364-15.759091-10.554545-14.136364-11.886364 41.736364 15.590909 84.85 11.809091 120.963636-17.140909 9.186364-7.154545 19.222728-19.327272 22.122728-19.495454-4.368182 6.568182.745454 3.159091-2.609091 8.959091 9.154545-14.763637-3.977273-6.009091 9.463636-25.495455l4.963636 6.836364c-1.845454-12.254546 15.218182-27.136364 13.486364-46.518182 3.913636-5.927273 4.368182 6.377273.213636 20.013636 5.763637-15.127272 1.518182-17.559091 3-30.040909 1.6 4.195455 3.7 8.654546 4.777273 13.081818-3.754545-14.618181 3.854546-24.618181 5.736364-33.113636-1.854546-.822727-5.795455 6.463636-6.695455-10.804545.131818-7.5 2.086364-3.931819 2.840909-5.777273-1.472727-.845455-5.336363-6.595455-7.686363-17.622727 1.704545-2.59091 4.554545 6.718181 6.872727 7.1-1.490909-8.768182-4.059091-15.454546-4.163636-22.181819-6.772728-14.154545-2.395455 1.886364-7.89091-6.077272-7.20909-22.486364 5.981819-5.218182 6.872728-15.436364 10.927272 15.831818 17.159091 40.368182 20.018182 50.531818-2.181819-12.390909-5.709091-24.395454-10.013637-36.009091 3.318182 1.395455-5.345454-25.495454 4.313637-7.686363-10.318182-37.9636367-44.159091-73.436364-75.29091-90.0818185 3.809091 3.4863636 8.618182 7.8636363 6.89091 8.55-15.481819-9.2181819-12.759091-9.9363637-14.977273-13.8318182-12.613637-5.1318182-13.440909.4136363-21.795455.0090909-23.772727-12.6090909-28.354545-11.2681818-50.231818-19.1681818l.995455 4.65c-15.75-5.2454546-18.35 1.9909091-35.372728.0181818-1.036363-.8090909 5.454546-2.9272727 10.795455-3.7045455-15.227273 2.0090909-14.513636-3-29.413636.5545455 3.672727-2.5772727 7.554545-4.2818182 11.472727-6.47272729-12.418182.75454545-29.645455 7.22727269-24.327273 1.34090909-20.254545 9.0363636-56.227273 21.7227273-76.4136363 40.65l-.6363636-4.2409091c-9.25 11.1045455-40.3363636 33.1636364-42.8136364 47.5454546l-2.4727272.5772727c-4.8136364 8.1499998-7.9272728 17.3863638-11.7454546 25.7727268-6.2954545 10.727273-9.2272727 4.127273-8.3318182 5.809091-12.3818182 25.104546-18.5318182 46.2-23.84545452 63.5 3.78636362 5.659091.09090909 34.068182 1.52272727 56.804546-6.21818181 112.290909 78.80909095 221.318182 171.74999955 246.490909 13.622728 4.872727 33.881819 4.686364 51.113637 5.186364-20.331818-5.813637-22.959091-3.081819-42.763637-9.986364-14.286363-6.727273-17.418181-14.409091-27.536363-23.190909l4.004545 7.077273c-19.845454-7.022728-11.540909-8.69091-27.686363-13.804546l4.277272-5.586364c-6.431818-.486363-17.036363-10.840909-19.936363-16.572727l-7.036364.277273c-8.454545-10.431818-12.959091-17.95-12.631818-23.772727l-2.2727274 4.05c-2.5772727-4.422728-31.1045454-39.122728-16.3045454-31.045455-2.75-2.513636-6.4045455-4.090909-10.3681818-11.290909l3.0136363-3.445455c-7.1227272-9.163636-13.1090909-20.90909-12.6545454-24.822727 3.8 5.131818 6.4363636 6.090909 9.0454545 6.968182-17.9863636-44.627273-18.9954545-2.459091-32.6181818-45.427273l2.8818182-.231818c-2.2090909-3.327273-3.55-6.940909-5.3272727-10.486364l1.2545454-12.5c-12.95-14.972727-3.6227273-63.663636-1.7545454-90.368181 1.2954545-10.859091 10.8090909-22.418182 18.0454545-40.545455l-4.4090909-.759091c8.4272727-14.7 48.1181818-59.0363635 66.4999999-56.7545453 8.904546-11.1863636-1.768182-.0409091-3.509091-2.8590909 19.559091-20.2409091 25.709091-14.3 38.909091-17.9409091 14.236364-8.45-12.218182 3.2954546-5.468182-3.2227272 24.609091-6.2863637 17.440909-14.2909091 49.545455-17.4818182 3.386363 1.9272727-7.859091 2.9772727-10.681818 5.4772727 20.504545-10.0318182 64.886363-7.75 93.713636 5.5681818 33.45 15.6318182 71.031818 61.8409092 72.513636 105.3181822l1.686364.454545c-.854545 17.281818 2.645455 37.268182-3.418182 55.627273z"/><path d="m151.690909 276.2-1.145454 5.727273c5.368181 7.290909 9.627272 15.190909 16.481818 20.890909-4.931818-9.627273-8.595455-13.604546-15.336364-26.618182"/><path d="m164.381818 275.7c-2.840909-3.140909-4.522727-6.922727-6.404545-10.690909 1.8 6.622727 5.486363 12.313636 8.918182 18.1z"/><path d="m388.945455 226.890909-1.2 3.009091c-2.2 15.627273-6.95 31.090909-14.231819 45.427273 8.045455-15.127273 13.25-31.672728 15.431819-48.436364"/><path d="m211.486364 6.98636364c5.522727-2.02272728 13.577272-1.10909091 19.436363-2.44090909-7.636363.64090909-15.236363 1.02272727-22.740909 1.99090909z"/><path d="m17.6 110.086364c1.2727273 11.781818-8.86363636 16.354545 2.2454545 8.586363 5.9545455-13.413636-2.3272727-3.704545-2.2454545-8.586363"/><path d="m4.54545455 164.613636c2.5590909-7.854545 3.02272727-12.572727 4-17.118181-7.07272728 9.040909-3.25454546 10.968181-4 17.118181"/></g></g></svg>