<svg height="500" viewBox="0 0 500 500" width="500" xmlns="http://www.w3.org/2000/svg"><g fill="none" fill-rule="evenodd"><path d="m0 0h500v500h-500z" fill="#fff" opacity="0"/><path d="m249.952981 0c-22.258778 54.5623407-35.684195 90.252522-60.466428 143.19293 15.194613 16.103257 33.845284 34.856304 64.13391 56.036103-32.563244-13.397054-54.775361-26.84738-71.374836-40.804813-31.716532 66.168974-81.407217 160.423738-182.245627 341.57578 79.2556043-45.747033 140.69314-73.950568 197.949972-84.712298-2.458632-10.572546-3.856461-22.008815-3.76152-33.941331l.094038-2.538549c1.257603-50.767416 27.67174-89.807566 58.961821-87.156825 31.290096 2.65074 55.61154 45.979451 54.353959 96.746897-.236525 9.552824-1.314245 18.742535-3.197292 27.265889 56.635185 11.076766 117.415776 39.208094 195.599022 84.336217-15.416212-28.376984-29.176513-53.956766-42.317096-78.318917-20.698559-16.039744-42.288178-36.915532-86.326876-59.514855 30.269671 7.863858 51.942373 16.936653 68.83581 27.077849-133.604003-248.700531-144.423066-281.747698-190.238857-389.244077z" fill="#1793d1"/></g></svg>