<svg height="500" viewBox="0 0 500 500" width="500" xmlns="http://www.w3.org/2000/svg" xmlns:xlink="http://www.w3.org/1999/xlink"><linearGradient id="a" x1="9.544068%" x2="68.917652%" y1="21.352983%" y2="65.296028%"><stop offset="0" stop-color="#c7f994"/><stop offset="1" stop-color="#87cf3e"/></linearGradient><linearGradient id="b" x1="19.810732%" x2="67.573463%" y1="73.883072%" y2="39.05563%"><stop offset="0" stop-color="#3d3d3d"/><stop offset="1" stop-opacity=".114007"/></linearGradient><g fill="none" fill-rule="evenodd"><path d="m0 0h500v500h-500z" fill="#fff" opacity="0"/><g transform="translate(1 26)"><path d="m232.226814 448c-92.790727 0-173.3150155-70.446649-173.3150155-163.289332l-.0832453-95.990668v-28.746391h-58.8285532v-159.973609l248.081343 1.17001377 77.603685.16716976c92.874146 0 173.314972 70.36280177 173.314972 163.28889547v283.373921l-266.773099-.000044z" fill="#000" opacity=".26"/><path d="m464.999874 374.022145c0-61.574053 0-206.826926 0-206.826926 0-69.0984301-60.619001-125.1112489-135.413248-125.1112489h-77.629196v-.1668998l-209.95743-.9170703v75.464339h32.2297622c22.4971038 0 26.4714468 15.52444 26.4714468 37.012053l.166961 133.412401c0 69.098472 60.619252 125.111207 135.330019 125.111207h184.460718c23.648006 0 44.341093-14.970575 44.341093-37.978022z" fill="url(#a)"/><path d="m447 391.687975c-47.128005-32.538871-80.506518-69.9157-108.622622-119.396513-55.423848-102.579292-42.464613-153.500593-179.713594-165.50827-39.608389 0-65.973373-8.783192-107.663784-8.783192v14.547161c.0000044.000044 16.47527 8.376926 30.9567624 8.376926 21.5949856.000044 25.3407126 15.008937 25.3407126 35.681716l.136977 128.037022c-.000013 66.478134 58.276113 120.357175 129.991006 120.357175h176.974058c12.990137 0 24.658984-5.128813 32.600484-13.312025z" fill="url(#b)" fill-rule="nonzero" opacity=".175141"/><path d="m282.59644 119.413273c-16.825714 0-31.775875 6.245202-43.78804 18.376312-12.006166 12.124665-18.310146 27.261338-18.310102 44.343627v86.347095h39.175069v-86.347095c0-6.547411 2.136944-11.666946 6.813021-16.389264 4.691427-4.737445 9.6594-6.882064 16.110052-6.882064 6.585855 0 11.479275 2.133834 16.180964 6.882064 4.676122 4.722318 6.813065 9.841853 6.813065 16.389264v86.347095h39.175126v-86.347095c0-6.547411 2.136944-11.666946 6.813065-16.389264 4.701689-4.74823 9.59511-6.882064 16.181053-6.882064 6.450695 0 11.418537 2.144619 16.109963 6.882064 4.676078 4.722318 6.813066 9.841853 6.813066 16.389264l.213133 100.892239c0 21.522215-20.501382 39.661074-46.839759 39.661074l-126.325399-.496564c-20.325292 0-37.684764-19.778277-37.684764-45.195539v-189.994422h-37.045953v197.3022c0 20.933712 7.662181 39.29104 22.568264 54.135456 12.740589 12.572389 28.062842 20.011871 45.278444 21.852484v.70986h140.661171c21.614673 0 40.604214-8.034869 55.923831-23.627113h.071044c13.029271-13.382825 20.646146-29.418496 22.497246-47.465372l-.142089-107.774303c0-17.082289-6.303826-32.218962-18.31019-44.343627-12.01202-12.13111-26.962295-18.376312-43.787965-18.376312-16.515793 0-30.967135 6.139847-42.652615 17.382788-11.651317-11.224395-26.001705-17.382788-42.510657-17.382788z" fill="#000" fill-opacity=".080402"/><path d="m279.596653 120.413236c-16.825716 0-31.775871 6.245172-43.788043 18.376286-12.006191 12.124632-18.310162 27.261312-18.31012 44.343554v86.347025h39.175097v-86.347025c0-6.547368 2.136931-11.666927 6.812993-16.389244 4.691453-4.737413 9.659418-6.882054 16.110073-6.882054 6.585836 0 11.479267 2.133853 16.180968 6.882054 4.676103 4.722317 6.813076 9.841876 6.813076 16.389244v86.347025h39.175055v-86.347025c0-6.547368 2.136973-11.666927 6.813118-16.389244 4.701659-4.748201 9.595091-6.882054 16.181052-6.882054 6.450696 0 11.418536 2.144641 16.109906 6.882054 4.676103 4.722317 6.813076 9.841876 6.813076 16.389244l.212895 100.892151c0 21.522183-20.501384 39.661003-46.83975 39.661003l-126.325352-.496552c-20.325295 0-37.684752-19.778253-37.684752-45.19549v-189.994188h-37.045945v197.301959c0 20.933682 7.662186 39.290984 22.568256 54.13542 12.740572 12.572344 28.062852 20.722015 45.278386 22.562621l140.661208-.000335c21.614665 0 40.604165-8.034847 55.92381-23.627059h.071104c13.029213-13.38284 20.646143-29.418457 22.497236-47.465325l-.14179-107.774205c0-17.082242-6.303762-32.218922-18.31012-44.343554-12.012047-12.131114-26.962327-18.376286-43.787959-18.376286-16.515785 0-30.967123 6.139841-42.652634 17.382765-11.651339-11.2244-26.001668-17.382765-42.510635-17.382765z" fill="#fff"/><path d="m257 323.337079v38.662921h91.779051c21.558649 0 40.387121-8.056015 55.667082-23.641854h.130576c12.995538-13.377413 20.576989-29.374834 22.423291-47.414326v-21.94382h-38.980023v15.021067c0 21.513513-20.401565 39.577248-46.671775 39.577248l-84.348035-.261236z" fill="#52a800" opacity=".3"/><path d="m234.919062 441c-89.071667 0-166.3684947-67.458956-166.3684947-156.364115l-.0799089-107.950036v-27.527194h-56.4706584v-137.158655l238.138182 1.1203926 74.493365.16008c89.151702 0 166.368453 67.3786651 166.368453 156.3636544v271.355873l-256.080813-.000042zm219.795169-72.791124c0-59.114317 0-198.564707 0-198.564707 0-66.338103-58.232753-120.1133559-130.082809-120.1133559h-74.5734v-.16008l-201.6925538-.8804398v64.4180637h22.5935767c15.3391508 0 33.7968381 14.400803 33.7968381 35.533491l.160236 136.114624c0 66.338146 58.233046 120.113315 130.002901 120.113315h177.199531c22.71708 0 42.595639-14.372549 42.595639-36.460911z" fill="#fff"/></g></g></svg>