<svg height="500" viewBox="0 0 500 500" width="500" xmlns="http://www.w3.org/2000/svg" xmlns:xlink="http://www.w3.org/1999/xlink"><linearGradient id="a" x1="52.083333%" x2="52.083333%" y1="0%" y2="100%"><stop offset="0" stop-color="#1abc9c"/><stop offset="1" stop-color="#2980b9"/></linearGradient><linearGradient id="b"><stop offset="0"/><stop offset="1" stop-opacity="0"/></linearGradient><linearGradient id="c" x1="14.841509%" x2="107.388522%" xlink:href="#b" y1="14.813187%" y2="107.39086%"/><linearGradient id="d" x1="29.385633%" x2="94.559647%" xlink:href="#b" y1="29.34344%" y2="94.555489%"/><linearGradient id="e" x1="38.226149%" x2="94.424218%" xlink:href="#b" y1="38.229248%" y2="94.432967%"/><g fill="none" fill-rule="evenodd"><path d="m0 0h500v500h-500z" fill="#fff" opacity="0"/><circle cx="250" cy="250" fill="url(#a)" r="250"/><g transform="translate(31.632653 30.612245)"><path d="m254.829654 182.698535-72.703978 72.703978 172.717653 172.697324c28.98753-18.963052 53.712308-43.750108 72.602375-72.785252z" fill="url(#c)" opacity=".2"/><path d="m320.706194 116.821995-4.592255 4.592255c25.915232 25.887186 40.489173 61.006438 40.517525 97.636274-.00066 76.299963-61.853836 138.153139-138.153799 138.1538-36.629836-.028353-71.749088-14.602293-97.636274-40.517526l-4.592255 4.592255 143.904277 143.924596c104.69093-17.842005 186.64028-99.954388 204.274182-204.680571z" fill="url(#d)" opacity=".2"/><path d="m372.968517 64.5190292v.0406389l-12.008958 12.0089619c37.819546 37.776984 59.088485 89.027083 59.130397 142.481894.000635 53.471099-21.240395 104.752343-59.050172 142.562119-37.809776 37.809777-89.09102 59.050807-142.562119 59.050172-53.457728-.047299-104.708238-21.323717-142.4818941-59.150715l-12.0089619 12.029276 85.180284 85.18028c22.518201 6.578665 45.851165 9.951035 69.310572 10.017627 66.221576 0 129.730889-26.306419 176.556615-73.132144 46.825725-46.825726 73.132144-110.335039 73.132144-176.556615-.039301-23.434161-3.377397-46.746111-9.916025-69.249617z" fill="url(#e)" opacity=".2"/><path d="m218.477674.5732267c-8.417835.00720352-15.705506 5.84997804-17.542998 14.0648207-42.20786 3.6731966-82.250771 20.2944553-114.6529639 47.5908605-2.7740916-1.6539404-5.9422363-2.5306759-9.1719493-2.5381964-9.9368549.0000078-17.9922637 8.0554224-17.9922651 17.992278.0074646 3.2272605.8828263 6.3931062 2.5343537 9.1657805-27.336544 32.400141-43.9910855 72.457355-47.6836633 114.687921-8.16594557 1.873831-13.95779658 9.136023-13.96818168 17.514197.00684927 8.418122 5.84970565 15.706206 14.06482848 17.543756 3.6734725 42.207529 20.294805 82.250054 47.5911033 114.651936-1.6540704 2.774142-2.5308923 5.942384-2.5384405 9.172207 0 9.936855 8.0554092 17.99227 17.9922651 17.992278 3.2166306-.00719 6.3725182-.876577 9.1390491-2.517634 32.4095171 27.336599 72.4770531 43.986366 114.7156931 47.669255 1.87467 8.16465 9.13607 13.955248 17.513169 13.965863 8.424191-.00666 15.715954-5.857587 17.547612-14.080242 42.243614-3.61709 82.336397-20.203989 114.78815-47.489333 2.741689 1.599804 5.857822 2.445789 9.032124 2.452091 9.936856-.000008 17.992265-8.055423 17.992265-17.992278-.007432-3.223194-.880578-6.38521-2.528159-9.1555 27.406146-32.392567 44.120445-72.470217 47.85072-114.736756 8.083115-1.939176 13.785605-9.163179 13.794937-17.475643-.006659-8.424187-5.857579-15.715948-14.08023-17.547612-3.621619-42.240453-20.211121-82.328961-47.497069-114.7765965 1.604471-2.7443256 2.4532-5.864758 2.459801-9.04369 0-9.9368552-8.055409-17.9922702-17.992265-17.992278-3.224806.0073998-6.388353.8813789-9.159612 2.5304854-32.391639-27.4048103-72.467717-44.1185135-114.732644-47.8491781-1.937658-8.08464167-9.162036-13.78902506-17.47563-13.7987921zm0 7.71226144c5.677704.00000003 10.280592 4.60231236 10.281302 10.28001656 0 5.6782061-4.603096 10.2813016-10.281302 10.2813017-2.726775.0000068-5.341871-1.0831957-7.269995-3.0113145-1.928123-1.9281188-3.011332-4.543212-3.011332-7.2699872.00071-5.6777143 4.603613-10.28003073 10.281327-10.28001656zm-16.923536 16.33441806c2.555877 7.152547 9.328053 11.9296452 16.923536 11.9378765 7.495249-.0098075 14.199263-4.66512 16.82688-11.6846994 39.882802 3.5047558 77.725605 19.1794973 108.405544 44.9023-1.213617 2.4598703-1.848743 5.1646586-1.856829 7.9076062 0 4.7718508 1.895611 9.3482589 5.269821 12.7224659 3.374209 3.374207 7.950619 5.2698152 12.72247 5.2698121 2.753748-.0037302 5.469896-.639503 7.939221-1.8583453 25.734976 30.6624568 41.428452 68.4910518 44.956534 108.3662048-7.067407 2.604583-11.764471 9.335694-11.770561 16.867761.00983 7.495033 4.664899 14.198886 11.684198 16.826635-3.504436 39.882891-19.17891 77.725874-44.901529 108.406046-2.459929-1.213735-5.164811-1.848942-7.907863-1.85706-4.771851-.000004-9.348261 1.895605-12.72247 5.269812-3.37421 3.374207-5.269821 7.950615-5.269821 12.722466.003883 2.746724.636587 5.456098 1.849619 7.920457-30.657637 25.74015-68.483061 41.440253-108.357209 44.975555-2.604532-7.067586-9.335785-11.764779-16.868005-11.770806-7.490303.009717-14.191033 4.658907-16.822266 11.671848-39.891468-3.439609-77.76252-19.054339-108.4857378-44.730088 1.2636641-2.501772 1.9253767-5.264171 1.9323835-8.066966 0-4.771851-1.8956113-9.348259-5.2698207-12.722466s-7.950619-5.269816-12.7224702-5.269812c-2.7483768.003933-5.4593245.637444-7.9248145 1.851919-25.7867245-30.624248-41.54136-68.432103-45.1313212-108.305803 7.1491911-2.55798 11.9229985-9.328706 11.9309392-16.921737-.009502-7.49049-4.658729-14.19148-11.6718452-16.82278 3.4423984-39.891461 19.059918-77.761631 44.7380562-108.4831549 2.4995379 1.2617391 5.2590539 1.9227073 8.0589855 1.9303144 4.7718507.0000031 9.3482599-1.895605 12.7224693-5.269812 3.3742093-3.3742069 5.2698209-7.9506149 5.2698216-12.722466-.0038716-2.7510746-.6385575-5.4646249-1.8552609-7.9320242 30.6247022-25.78692 68.4331352-41.5414808 108.3073452-45.1310591zm16.923536 37.6398456c-8.472554.0047716-15.793773 5.919876-17.578455 14.2023331-72.050022 8.865337-126.2225775 69.9955521-126.3597688 142.5888031.1083944 72.625116 54.3027538 133.793156 126.3859728 142.649206 1.807114 8.248864 9.107767 14.131034 17.552251 14.14193 8.472358-.004399 15.793724-5.918913 17.57897-14.201048 72.050297-8.865642 126.22273-69.996525 126.359241-142.590088-.108363-72.624947-54.302451-133.7929238-126.385471-142.6492057-1.807154-8.2490429-9.108072-14.1312633-17.55274-14.1419305zm-141.3679112 5.141936c5.6782061.0000001 10.2813017 4.6030956 10.2813017 10.2813017s-4.6030956 10.2813017-10.2813017 10.2813017c-5.6782011-.0000071-10.2812888-4.6031006-10.2812888-10.2813017s4.6030877-10.2812945 10.2812888-10.2813017zm282.7357972 0c5.678201.0000072 10.281289 4.6031006 10.281289 10.2813017s-4.603088 10.2812946-10.281289 10.2813017c-5.678201-.0000071-10.281289-4.6031006-10.281289-10.2813017s4.603088-10.2812945 10.281289-10.2813017zm-141.367886 2.5703254c5.677704.0000001 10.280592 4.6023124 10.281302 10.2800166.000682 2.727216-1.082223 5.3429657-3.010415 7.2716397-1.928192 1.9286741-4.543671 3.0122324-7.270887 3.0122323-2.72722.0000069-5.342706-1.0835484-7.270903-3.0122232-1.928198-1.9286747-3.011106-4.5444283-3.010424-7.2716488.00071-5.6777143 4.603613-10.2800307 10.281327-10.2800166zm-16.806343 16.6878379c2.65768 6.9731011 9.343944 11.5818808 16.806343 11.5844567 7.443831-.0087874 14.113657-4.6005709 16.778545-11.5510425 66.705362 8.440485 116.756624 65.1204877 116.878365 132.3576227-.103132 67.24038-50.143346 123.935893-116.850092 132.391037-2.657741-6.973264-9.344245-11.582078-16.806818-11.584457-7.443657.008984-14.113243 4.600733-16.778069 11.551043-66.705556-8.44026-116.757081-65.120324-116.878853-132.357623.1031624-67.240544 50.14364-123.9361185 116.850579-132.3910369zm16.806343 80.9845279c-13.633856-.000003-26.709306 5.416023-36.349899 15.056614s-15.056622 22.716039-15.056622 36.349895 5.416029 26.709305 15.056622 36.349895c9.640593 9.640591 22.716043 15.056617 36.349899 15.056614 28.391026-.000008 51.406496-23.015483 51.406496-51.406509s-23.01547-51.406501-51.406496-51.406509zm-200.4853793 41.126492c5.6777038.000001 10.2805906 4.602313 10.2813004 10.280017-.0007098 5.677704-4.6035966 10.280016-10.2813004 10.280017-5.6777038-.000001-10.28059065-4.602313-10.28130043-10.280017.00070978-5.677704 4.60359663-10.280016 10.28130043-10.280017zm400.9707503 0c5.677704.000001 10.280592 4.602313 10.281301 10.280017-.000709 5.677704-4.603597 10.280017-10.281301 10.280017-5.67771.000007-10.280605-4.602308-10.281315-10.280017.00071-5.677709 4.603605-10.280024 10.281315-10.280017zm-200.485371 138.795003c2.727216 0 5.342695 1.083558 7.270887 3.012233 1.928192 1.928674 3.011097 4.544423 3.010415 7.271639-.00071 5.677704-4.603598 10.280017-10.281302 10.280017-5.677714.000014-10.280617-4.602302-10.281327-10.280017-.000682-2.72722 1.082226-5.342974 3.010424-7.271649 1.928197-1.928674 4.543683-3.01223 7.270903-3.012223zm-141.3679112 2.571611c5.6782061 0 10.2813017 4.603095 10.2813017 10.281302 0 5.678206-4.6030956 10.281301-10.2813017 10.281301-5.6782011-.000007-10.2812888-4.6031-10.2812888-10.281301 0-5.678202 4.6030877-10.281295 10.2812888-10.281302zm282.7357972 0c5.678201.000007 10.281289 4.6031 10.281289 10.281302 0 5.678201-4.603088 10.281294-10.281289 10.281301-5.678201-.000007-10.281289-4.6031-10.281289-10.281301 0-5.678202 4.603088-10.281295 10.281289-10.281302zm-141.367886 59.117485c5.678206 0 10.281302 4.603095 10.281302 10.281301-.00071 5.677705-4.603598 10.280017-10.281302 10.280017-5.677714.000014-10.280617-4.602302-10.281327-10.280017 0-2.726775 1.083209-5.341868 3.011332-7.269987 1.928124-1.928119 4.54322-3.011321 7.269995-3.011314z" fill="#fcfcfc"/></g></g></svg>