<svg height="500" viewBox="0 0 500 500" width="500" xmlns="http://www.w3.org/2000/svg"><g fill="none" fill-rule="evenodd"><path d="m0 0h500v500h-500z" fill="#fff" opacity="0"/><path d="m250 0c-138.071183 0-250 111.928817-250 250s111.928817 250 250 250 250-111.928817 250-250-111.928817-250-250-250zm0 20.8333333c104.972867 0 193.461567 70.5820917 220.598958 166.8749997-23.373458 48.210275-56.6322 91.616517-97.135416 126.692709-19.457275 16.850191-40.7007 31.871383-64.166667 42.447916-23.465958 10.576534-49.276817 16.577817-74.973958 15.104167-19.306784-1.107183-38.378775-6.485292-55.286459-15.859375 44.808425-24.280125 85.238242-56.65285 118.333334-95.416667 21.722941-25.443775 40.728866-54.359866 48.046875-87.005208 3.659008-16.322675 4.279066-33.417183.859375-49.791667-3.419692-16.374483-10.990575-31.9786663-22.447917-44.1666663-11.193142-11.90695-25.887142-20.3413084-41.640625-24.6875-15.753492-4.3461917-32.517967-4.6826417-48.59375-1.7447917-32.151567 5.8757-60.85705 24.5616833-83.880208 47.760417-40.581667 40.891133-65.669692 98.589333-61.0677087 156.015625 2.3009834 28.713141 11.9231667 56.927483 28.4114587 80.546875 3.680425 5.272183 7.726566 10.2938 12.057291 15.052083-24.019941 8.406442-48.8905997 14.390283-74.114583 17.760417-21.6565083-34.993884-34.1666667-76.239459-34.1666667-120.416667 0-126.565258 102.6014087-229.1666667 229.1666667-229.1666667zm1.458333 46.3020834c16.109517.0218333 32.328459 4.8987666 45.182292 14.609375 11.580658 8.7487666 20.1616 21.1953663 25.026042 34.8697913 4.864441 13.674417 6.1128 28.524034 4.453125 42.942709-3.31935 28.837333-17.86695 55.283408-35.442709 78.385416-31.12005 40.904959-72.484841 73.644459-118.489583 96.5625-4.70895 2.345842-9.492525 4.575542-14.296875 6.71875-10.010275-8.759925-18.590175-19.149716-25.130208-30.729166-13.665617-24.195634-18.172167-52.937642-15.520834-80.598959 2.651334-27.661308 12.144-54.320975 24.895834-79.010416 14.785183-28.626317 34.938641-55.7416087 63.151041-71.3020837 14.1062-7.7802416 30.062359-12.46975 46.171875-12.4479166zm225.651042 152.1875003c1.342642 10.0354 2.057292 20.274225 2.057292 30.677083 0 126.565258-102.601409 229.166667-229.166667 229.166667-71.080342 0-134.60645-32.358325-176.640625-83.151042 25.9446833-5.892567 51.302458-14.356517 75.625-25.130208 10.636425 8.100391 22.383117 14.744158 34.869792 19.53125 35.959183 13.785883 76.784866 11.791125 113.177083-.807292 36.392208-12.598408 68.663908-35.211192 96.796875-61.510417 33.513658-31.329183 61.770067-68.255908 83.28125-108.776041z" fill="#000" fill-rule="nonzero"/></g></svg>