<svg height="500" viewBox="0 0 500 500" width="500" xmlns="http://www.w3.org/2000/svg"><g fill="none" fill-rule="evenodd"><path d="m0 0h500v500h-500z" fill="#fff" opacity="0"/><path d="m97.995562 206.981544-18.0402549 18.146478-18.0402549-18.146478v-127.7217415h-60.11014574l78.15040064-77.89142567 76.8335609 77.89142567h-58.7932726z" fill="#932279" transform="matrix(0 -1 1 0 4.106618 330.164183)"/><path d="m97.995562 206.981544-18.0402549 18.146478-18.0402549-18.146478v-127.7217415h-60.11014574l78.15040064-77.89142567 76.8335609 77.89142567h-58.7932726z" fill="#efa724" transform="translate(170.927848 3.987342)"/><path d="m97.995562 206.981544-18.0402549 18.146478-18.0402549-18.146478v-127.7217415h-60.11014574l78.15040064-77.89142567 76.8335609 77.89142567h-58.7932726z" fill="#262577" transform="matrix(0 1 -1 0 497.104201 170.809079)"/><path d="m97.995562 206.981544-18.0402549 18.146478-18.0402549-18.146478v-127.7217415h-60.11014574l78.15040064-77.89142567 76.8335609 77.89142567h-58.7932726z" fill="#9ccd2a" transform="matrix(-1 0 0 -1 330.282496 496.985992)"/><g stroke="#fff"><g fill-rule="nonzero" stroke-width="3.76903" transform="translate(75.708353 76.199882)"><path d="m3.07952384 2.4692726h155.18986316v155.1906394h-155.18986316z" fill="#9ccd2a"/><path d="m191.524315 2.4692726h155.189863v155.1906394h-155.189863z" fill="#932279"/><path d="m191.524315 190.914534h155.189863v155.190639h-155.189863z" fill="#efa724"/><path d="m3.07952384 190.914534h155.18986316v155.190639h-155.18986316z" fill="#262577"/></g><path d="m39.7593649 172.892002h155.1898361v155.190486h-155.1898361z" stroke-width="3.76903" transform="matrix(.70710678 -.70710678 .70710678 .70710678 -142.748956 156.348025)"/><path d="m173.010086 39.6407327h155.189867v155.1904863h-155.189867z" stroke-width="3.768775" transform="matrix(.70710678 -.70710678 .70710678 .70710678 -9.497843 211.542131)"/><path d="m274.11969 250.487105 109.735807-109.736377 109.735807 109.736377-109.735807 109.736063z" stroke-width="3.76903"/><path d="m173.009825 306.142994h155.189836v155.190487h-155.189836z" stroke-width="3.76903" transform="matrix(.70710678 -.70710678 .70710678 .70710678 -197.94348 289.598641)"/></g></g></svg>