<svg height="500" viewBox="0 0 500 500" width="500" xmlns="http://www.w3.org/2000/svg"><g fill="none" fill-rule="evenodd"><path d="m0 0h500v500h-500z" fill="#fff" opacity="0"/><g fill-rule="nonzero" transform="translate(0 92)"><path d="m493.1 231.44c0 .38-.32.702-.718.702h-.32c-.38 0-.702-.32-.702-.702v-5.958h-3.36v5.958c0 .38-.34.702-.74.702h-.298c-.38 0-.702-.32-.702-.702v-5.958h-2.52c-.36 0-.66-.26-.66-.66v-.34c0-.4.3-.64.66-.64h8.82c.34 0 .58.122.7.32l1.66 2.5 1.66-2.5c.14-.18.34-.32.7-.32h1.122v7.66c0 .36-.34.7-.74.7l-.1-.058h-.32c-.38 0-.702-.32-.702-.702v-5l-1.1 1.68c-.12.16-.34.24-.54.24h-.122c-.2 0-.44-.08-.558-.24l-1.122-1.68v4.998z" fill="#73ba25"/><path d="m481.3 287.24v1.62c0 3.56-2.702 6.16-6.442 6.16h-48.658c-3.54 0-6.18-2.66-6.18-6.16v-61.04c0-3.52 2.74-6.16 6.3-6.16l.02.06h46.5c3.74 0 6.46 2.58 6.46 6.138v1.622c0 3.558-2.72 6.138-6.46 6.138 0 0-36.04 0-37.82 0v15.98h29.18c3.74 0 6.46 2.622 6.46 6.18v1.602c0 3.58-2.72 6.158-6.46 6.158 0 0-27.398 0-29.18 0v15.56h39.84c3.76.002 6.44 2.622 6.44 6.142z" fill="#73ba25"/><path d="m437.12 32.76c15.38.54 27.442 13.5 26.92 28.86-.28 7.44-3.398 14.32-8.84 19.4-5.44 5.1-12.52 7.74-20 7.48-15.36-.56-27.398-13.5-26.898-28.86.26-7.44 3.378-14.34 8.84-19.42 5.438-5.08 12.538-7.72 19.978-7.46zm19.62 28.28c.36-10.94-8.202-20.14-19.14-20.52-5.298-.2-10.34 1.68-14.2 5.3-3.862 3.6-6.122 8.5-6.282 13.8-.36 10.94 8.202 20.14 19.122 20.54 5.32.16 10.36-1.72 14.24-5.32 3.86-3.62 6.1-8.52 6.26-13.8z" fill="#fff"/><path d="m437.6 40.52c10.94.38 19.5 9.58 19.14 20.52-.16 5.28-2.4 10.18-6.26 13.8-3.88 3.6-8.92 5.48-14.24 5.32-10.92-.4-19.48-9.6-19.122-20.54.16-5.3 2.42-10.2 6.282-13.8 3.86-3.62 8.9-5.5 14.2-5.3zm12.04 15.82c0-3.26-3.942-5.88-8.8-5.88s-8.78 2.62-8.78 5.88c0 3.22 3.92 5.86 8.78 5.86s8.8-2.64 8.8-5.86z" fill="#73ba25"/><path d="m440.84 50.46c4.86 0 8.8 2.62 8.8 5.88 0 3.22-3.942 5.86-8.8 5.86s-8.78-2.64-8.78-5.86c0-3.26 3.92-5.88 8.78-5.88z" fill="#fff"/><g fill="#73ba25"><path d="m407.2 266.82v9.78c0 11.202-6.68 18.42-17.1 18.42h-39.74c-3.74 0-6.44-2.62-6.44-6.16v-1.62c0-3.542 2.7-6.14 6.44-6.14h37.702c4.1 0 4.218-5.62 4.218-6.24v-5.86c0-1.92-.76-4.18-4.218-4.18h-27.622c-7.86 0-16.378-6.44-16.378-16.82v-9.06c0-7.08 6.68-17.28 18.718-17.28v.08h32.442c3.78 0 6.58 2.66 6.58 6.14v1.62c0 3.52-2.782 6.16-6.442 6.16h-30.12c-3.96 0-6.22 1.94-6.22 5.34v5.38c0 2.2 1.84 5.218 5.942 5.218h27.2c7.498.002 15.038 4.722 15.038 15.222z"/><path d="m324.62 221.66c3.622 0 6.442 2.84 6.442 6.458v48.06c0 11.18-8.782 19.282-20.9 19.282h-22.46c-12.12 0-20.898-8.102-20.898-19.282v-48.06c0-3.62 2.86-6.458 6.44-6.458h2.04c3.602 0 6.46 2.9 6.46 6.458v46.282c0 3.7 2.98 6.68 6.66 6.68h21.02c3.66 0 6.66-2.98 6.66-6.68v-46.28c0-3.558 2.9-6.458 6.458-6.458h.042 2.036z"/><path d="m253.9 266.82v9.78c0 11.202-6.72 18.42-17.1 18.42h-39.76c-3.76 0-6.46-2.62-6.46-6.16v-1.62c0-3.542 2.72-6.14 6.46-6.14h37.7c4.08 0 4.18-5.62 4.18-6.24v-5.86c0-1.92-.72-4.18-4.18-4.18h-27.62c-7.9 0-16.38-6.44-16.38-16.82v-9.06c0-7.08 6.66-17.28 18.72-17.28l.04.08h32.46c3.76 0 6.58 2.66 6.58 6.14v1.62c0 3.52-2.78 6.16-6.46 6.16h-30.12c-3.98 0-6.24 1.94-6.24 5.34v5.38c0 2.2 1.84 5.218 5.94 5.218h27.18c7.5.002 15.06 4.722 15.06 15.222z"/><path d="m481.6 99.28 2.042-.38c.558.44.478 1.34.298 2.14-.378 1.86-1.28 5.24-1.9 6.84l-.52 1.32c-.718 1.96-1.44 3.82-2.82 4.94-3.798 3.46-9.878 6.22-19.398 10.38-14.72 6.44-38.58 10.5-60.74 10.36-7.942-.18-15.622-1.06-22.362-1.82-20.638-2.36-35.558-4.04-38.66 14.72-3.92 23.52 18.202 52.08 18.422 52.338l-.022.782-.718.18s-35.26-16.24-36.122-16.72l-1.12-.798-.9-.862c-2.66-2.558-8-8.298-18.84-20.86-21.02-24.3-45.62-27.5-64.58-22.88-4.62 1.1-10.5 4.48-14.32 8.28-9.9 9.76-8.78 29.42-8.22 36.58.66 8.1 1.08 8.7 1.26 9.36l-.12.82-.7.08-.4-.28-28.92-14.14-1.1-4.72c-.74-3.12-1.6-6.58-3.24-10.92-10.34-27.26-33.58-47.76-59.18-52.18-17.3-2.98-48.84-3.32-65.54 28.2-6.98 13.16-6.56 30.3 1.1 44.74 7.8 14.782 21.74 24.26 38.24 26.08 16.36 1.782 28.66-2 35.56-10.94 6.96-9.02 8.26-21.3 3.32-31.3-5.3-10.738-13.3-16.44-24.42-17.378-8.46-.76-14.74 2.76-17 6.36-.66 1.122-1.86 3.202-1.88 6.16v.1c0 8.06 7.38 10.26 8.88 10.362.46 0 2.68-.06 5.62-.8l1.42-.458.98-.342.72-.138c5.36-.98 10.52 2.18 12.02 7.4.26.958.4 1.92.4 2.878 0 3.46-1.76 6.68-4.68 8.64l.12-.042-.32.18-.48.3c-1.54.98-2.96 1.52-4.46 1.98-4.2 1.378-7.92 2.02-11.66 2.02-12.76-.02-30.54-11-30.78-31.62-.12-11.64 5.72-22.24 16-29.06 11.84-7.82 32.3-10.48 51.28 1.16 23.36 14.3 29.46 42.298 23.36 61.4-8.86 27.66-33.78 42.44-66.68 39.5-23.3-2.08-44.94-14.38-57.82-32.9-5.72-8.202-9.96-17.34-12.24-26.46-5.26-20.86.06-43.02 4.02-52.84 12.6-31.22 36.72-58.08 71.62-79.86l2.2-1.38c74.24-45.622 126.78-43.782 165.24-42.442 45.362 1.58 93.74 17.22 100.42 19.44.022-1.5.282-15.02.282-15.02l.2-.46.52-.14c3.042.42 68.22 10.1 95.682 26.1 3.398 2 5.078 4.08 7.18 6.24 7.58 7.84 17.62 40.5 18.68 47.24l-.4.68c-.4.14-1.34.84-2.6 1.68-6.4 4.48-21.38 14.96-40.58 13.24-17.26-1.52-39.8-11.42-66.98-29.32 1.202 2.82 6.86 16.22 7.82 18.48l.36.44c3.942 2.04 41.702 21.28 60.442 20.9 15.114-.3 31.254-7.68 37.714-11.56zm-17.56-37.66c.522-15.36-11.54-28.32-26.92-28.86-7.44-.26-14.54 2.38-19.978 7.46-5.46 5.08-8.58 11.98-8.84 19.42-.5 15.36 11.54 28.3 26.898 28.86 7.48.26 14.56-2.38 20-7.48 5.44-5.08 8.56-11.96 8.84-19.4z"/><path d="m154.24 253.2c2.6-1.238 5.84-2.76 10.12-2.76h1.32c7.48 0 12.32 4.46 12.32 11.32v30.04c0 1.818-1.48 3.298-3.26 3.298h-1.28c-1.82 0-3.26-1.48-3.26-3.298v-28.96c0-2.72-2.22-4.94-4.92-4.94h-10.86c-2.72 0-4.92 2.218-4.92 4.94v28.96c0 1.818-1.48 3.298-3.26 3.298h-1.28c-1.82 0-3.26-1.48-3.26-3.298v-38.28c0-1.638 1.1-2.798 2.62-2.798h1.26c1.2 0 2.08.52 2.56 1.54l.9 1.64c.38.68.58.718 1.08.718 1.12 0 2.5-.68 4.12-1.42z"/><path d="m132.7 261.34v8.86c0 3.782-2.2 6.022-5.84 6.022 0 0-21.72 0-22.74 0v6.68c0 3.298 1.86 5.02 5.4 5.02h12.6c1.88 0 3.26 1.3 3.26 3.08v1c0 1.8-1.38 3.1-3.26 3.1h-15.36c-5.68 0-10.48-5.04-10.48-10.958v-22.864c0-5.84 4.94-10.558 11.02-10.558l.02.04h14.34c6.08-.002 11.04 4.758 11.04 10.578zm-7.88 8.08c0-.92 0-7.1 0-7.1 0-2.48-1.92-4.4-4.38-4.4h-11.96c-2.48 0-4.38 1.96-4.38 4.4v7.1z"/><path d="m56.68 282.96c0 1.878 1.04 3.5 2.58 4.34l-1.84 4.058c-.34 0-.72.602-.72 1.16v19.38c0 1.78-1.46 3.26-3.26 3.26h-1.28c-1.84 0-3.26-1.46-3.26-3.26v-58.38c0-1.558 1.16-2.798 2.54-2.798h1.46c1.24 0 2.24.958 2.46 1.458l.96 1.9c.24.34.66.54 1.1.54l1.82 3.92c-1.54.82-2.56 2.442-2.56 4.342z"/><path d="m72.92 250.46c7.5 0 12.32 4.458 12.32 11.318v22.282c0 6.978-4.72 11.298-12.32 11.298h-1.34c-4.3 0-7.54-1.478-10.12-2.66-1.6-.738-2.96-1.34-4.04-1.34l1.84-4.058c.7.378 1.5.6 2.34.6h10.86c2.74 0 4.92-2.22 4.92-4.94v-20.08c0-2.762-2.16-4.92-4.92-4.92h-10.86c-.86 0-1.66.218-2.36.578l-1.82-3.92c1.08 0 2.44-.638 4-1.398 2.62-1.24 5.84-2.782 10.14-2.782v.022z"/><path d="m37.8 261.28v23.042c0 5.92-4.8 10.74-10.68 10.74h-14.88c-5.86 0-10.64-4.82-10.64-10.74v-23.042c0-5.84 4.94-10.558 11.02-10.558h14.16c6.08-.002 11.02 4.738 11.02 10.558zm-7.84 22.14v-21c0-2.44-2.06-4.5-4.48-4.5h-11.6c-2.46 0-4.48 2.02-4.48 4.5v21c0 2.52 1.92 4.48 4.38 4.48h11.7c2.48 0 4.48-2.02 4.48-4.48z"/></g></g></g></svg>