<svg xmlns="http://www.w3.org/2000/svg" width="494" height="499" viewBox="0 0 494 499">
  <g fill="none" fill-rule="evenodd">
    <path fill="#E00" fill-rule="nonzero" d="M329.233161,215.295337 C361.642487,215.295337 408.533679,208.611399 408.533679,170.062176 C408.630574,167.087042 408.360843,164.111294 407.73057,161.202073 L388.430052,77.3678756 C383.974093,58.9222798 380.062176,50.5544041 347.678756,34.3626943 C322.549223,21.5129534 267.80829,0.29533679 251.61658,0.29533679 C236.53886,0.29533679 232.160622,19.7253886 214.181347,19.7253886 C196.875648,19.7253886 184.025907,5.21761658 167.834197,5.21761658 C152.290155,5.21761658 142.160622,15.8134715 134.336788,37.6010363 C134.336788,37.6010363 112.549223,99.051813 109.751295,107.963731 C109.306589,109.600254 109.114391,111.29509 109.181347,112.989637 C109.181347,136.875648 203.222798,215.19171 329.233161,215.19171 M413.507772,185.709845 C417.989637,206.927461 417.989637,209.15544 417.989637,211.953368 C417.989637,248.222798 377.212435,268.352332 323.611399,268.352332 C202.471503,268.430052 96.357513,197.445596 96.357513,150.528497 C96.3505101,143.997843 97.6818678,137.535027 100.26943,131.53886 C56.6943005,133.715026 0.29533679,141.487047 0.29533679,191.279793 C0.29533679,272.834197 193.533679,373.352332 346.53886,373.352332 C463.84456,373.352332 493.430052,320.295337 493.430052,278.404145 C493.430052,245.450777 464.932642,208.041451 413.559585,185.709845"/>
    <path fill="#000" d="M413.507772,185.709845 C417.989637,206.927461 417.989637,209.15544 417.989637,211.953368 C417.989637,248.222798 377.212435,268.352459 323.611399,268.352459 C202.471503,268.430052 96.3574582,197.445596 96.3574582,150.528497 C96.3505101,143.997843 97.6818678,137.535027 100.26943,131.53886 L109.751295,108.067358 C109.316977,109.670527 109.124869,111.329639 109.181347,112.989637 C109.181347,136.875648 203.222798,215.19171 329.233161,215.19171 C361.642487,215.19171 408.533679,208.507772 408.533679,169.958549 C408.630574,166.983415 408.360843,164.007667 407.73057,161.098446 L413.507772,185.709845 Z"/>
    <path fill="#000" fill-rule="nonzero" d="M427.919739,478.894375 C427.919739,492.205472 435.991851,498.676299 450.713576,498.676299 C455.246186,498.5644 459.750556,497.933279 464.136991,496.795505 L464.136991,481.357319 C461.333387,482.238369 458.407472,482.676606 455.466526,482.655963 C449.403975,482.655963 447.157331,480.775169 447.157331,475.121591 L447.157331,451.466126 L464.724053,451.466126 L464.724053,435.568937 L447.157331,435.568937 L447.157331,415.41757 L427.964897,419.537405 L427.964897,435.568937 L415.218863,435.568937 L415.218863,451.466126 L427.919739,451.466126 L427.919739,478.894375 Z M367.963909,479.497143 C367.963909,475.747553 372.25284,473.923704 378.726917,473.923704 C382.684129,473.943869 386.624691,474.374812 390.466268,475.207531 L390.466268,482.492738 C386.680488,484.305407 382.4241,485.228566 378.110892,485.172472 C371.764669,485.172472 367.963909,483.032761 367.963909,479.497143 M374.781621,498.642329 C381.482075,498.642329 386.887109,497.215579 391.934784,493.761937 L391.934784,497.577928 L410.718391,497.577928 L410.718391,457.19863 C410.718391,441.844079 400.511366,433.419458 383.481044,433.419458 C373.966399,433.419458 364.563428,435.684141 354.445742,440.326741 L361.257871,454.503657 C368.539031,451.401041 374.658779,449.498707 380.052645,449.498707 C387.869842,449.498707 391.912449,452.59 391.912449,458.908465 L391.912449,461.999758 C387.310035,460.791747 382.57323,460.190424 377.81916,460.210658 C361.838577,460.210658 352.212257,467.004707 352.212257,479.154732 C352.212257,490.229032 360.900513,498.676299 374.759286,498.676299 M271.203764,498.676299 L291.398042,498.676299 L291.398042,466.062391 L325.211456,466.062391 L325.211456,498.642385 L345.46155,498.642385 L345.46155,415.41757 L325.289598,415.41757 L325.289598,447.398418 L291.476184,447.398418 L291.476184,415.41757 L271.281907,415.41757 L271.203764,498.676299 Z M194.695743,467.153546 C194.695743,458.229716 201.69297,451.425296 210.908019,451.425296 C215.702247,451.327519 220.357562,453.047764 223.94881,456.244164 L223.94881,477.940226 C220.434557,481.280294 215.740309,483.07114 210.908019,482.915261 C201.81495,482.915261 194.695743,476.110841 194.695743,467.198165 M225.303678,497.899809 L244.200933,497.899809 L244.200933,410.917098 L225.112796,415.055919 L225.112796,438.59546 C220.253609,435.836158 214.754119,434.408592 209.168588,434.45664 C190.989945,434.45664 176.696299,448.52638 176.696299,466.510005 C176.590736,475.033839 179.909199,483.242634 185.905868,489.291471 C191.902537,495.340309 200.074355,498.721756 208.584716,498.676751 C214.608426,498.704614 220.483115,496.800967 225.348591,493.243636 L225.303678,497.899809 Z M138.358371,449.171109 C144.596956,449.171109 149.857852,452.708286 151.94126,458.172053 L124.938429,458.172053 C126.893807,452.534995 131.793889,449.171109 138.358371,449.171109 M106.936542,466.061038 C106.936542,484.394391 121.557164,498.676299 140.348801,498.676299 C150.67703,498.676299 158.224581,495.813128 166.003855,489.147483 L153.579085,477.830598 C150.67703,480.931424 146.384636,482.595006 141.286728,482.595006 C134.724698,482.78456 128.725462,478.813125 126.191625,472.602197 L169.943148,472.602197 L169.943148,467.815155 C169.943148,447.81822 156.834243,433.423143 138.958463,433.423143 C130.469388,433.291775 122.287484,436.677602 116.264421,442.814369 C110.241357,448.951136 106.886325,457.320039 106.958611,466.027087 M73.6132316,433.419458 C80.5497387,433.419458 84.4341827,437.51375 84.4341827,442.420401 C84.4341827,447.327053 80.5497387,451.421345 73.6132316,451.421345 L52.9308798,451.421345 L52.9308798,433.419458 L73.6132316,433.419458 Z M32.6787565,498.676299 L53.0321404,498.676299 L53.0321404,468.34488 L68.5250147,468.34488 L84.1529032,498.676299 L106.936542,498.676299 L88.7096309,465.370546 C98.1861881,461.496574 104.367979,452.220792 104.326268,441.937771 C104.326268,426.95301 92.6137902,415.41757 75.0732012,415.41757 L32.6787565,415.41757 L32.6787565,498.676299 Z"/>
  </g>
</svg>
